<svg width="34" height="30" viewBox="0 0 34 30" fill="none" xmlns="http://www.w3.org/2000/svg">
<path d="M12.7988 30C11.8247 30 10.8904 29.6049 10.2016 28.9016C9.51274 28.1984 9.12575 27.2446 9.12575 26.25C9.12575 25.2554 9.51274 24.3016 10.2016 23.5984C10.8904 22.8951 11.8247 22.5 12.7988 22.5C13.773 22.5 14.7073 22.8951 15.3961 23.5984C16.0849 24.3016 16.4719 25.2554 16.4719 26.25C16.4719 27.2446 16.0849 28.1984 15.3961 28.9016C14.7073 29.6049 13.773 30 12.7988 30ZM25.6546 30C24.6805 30 23.7462 29.6049 23.0574 28.9016C22.3685 28.1984 21.9815 27.2446 21.9815 26.25C21.9815 25.2554 22.3685 24.3016 23.0574 23.5984C23.7462 22.8951 24.6805 22.5 25.6546 22.5C26.6288 22.5 27.5631 22.8951 28.2519 23.5984C28.9407 24.3016 29.3277 25.2554 29.3277 26.25C29.3277 27.2446 28.9407 28.1984 28.2519 28.9016C27.5631 29.6049 26.6288 30 25.6546 30ZM1.7098 3.60562C1.25133 3.59053 0.816579 3.39397 0.497493 3.05753C0.178407 2.72109 0 2.27113 0 1.80281C0 1.3345 0.178407 0.88454 0.497493 0.548095C0.816579 0.211651 1.25133 0.0150971 1.7098 0L3.82366 0C5.48022 0 6.91272 1.17375 7.27268 2.82375L9.57387 13.4025C9.93383 15.0525 11.3663 16.2262 13.0229 16.2262H26.819L29.4673 5.4075H12.3048C11.8506 5.38634 11.422 5.18726 11.1079 4.85166C10.7938 4.51606 10.6186 4.06977 10.6186 3.60562C10.6186 3.14148 10.7938 2.69519 11.1079 2.35959C11.422 2.02399 11.8506 1.82491 12.3048 1.80375H29.4673C30.0042 1.80359 30.534 1.9284 31.0166 2.16869C31.4991 2.40898 31.9216 2.75843 32.252 3.19047C32.5824 3.62251 32.812 4.12577 32.9233 4.66199C33.0346 5.19821 33.0247 5.75328 32.8943 6.285L30.246 17.1C30.0551 17.8804 29.614 18.5732 28.9931 19.0682C28.3721 19.5632 27.6068 19.832 26.819 19.8319H13.0229C11.4155 19.8321 9.85619 19.2726 8.60236 18.2458C7.34854 17.219 6.47523 15.7863 6.12668 14.1844L3.82366 3.60562H1.7098Z" fill="white"/>
</svg>
