<svg width="30" height="28" viewBox="0 0 30 28" fill="none" xmlns="http://www.w3.org/2000/svg">
<path d="M18.29 13.9999L28.3233 3.9899C28.7627 3.55053 29.0096 2.95461 29.0096 2.33324C29.0096 1.71187 28.7627 1.11595 28.3233 0.67657C27.884 0.237195 27.288 -0.00964355 26.6667 -0.00964355C26.0453 -0.00964355 25.4494 0.237195 25.01 0.67657L15 10.7099L4.99001 0.67657C4.55064 0.237195 3.95471 -0.00964356 3.33334 -0.00964355C2.71197 -0.00964355 2.11605 0.237195 1.67668 0.67657C1.2373 1.11595 0.990463 1.71187 0.990463 2.33324C0.990463 2.95461 1.2373 3.55053 1.67668 3.9899L11.71 13.9999L1.67668 24.0099C1.45798 24.2268 1.28439 24.4849 1.16593 24.7692C1.04747 25.0536 0.986481 25.3585 0.986481 25.6666C0.986481 25.9746 1.04747 26.2796 1.16593 26.5639C1.28439 26.8483 1.45798 27.1063 1.67668 27.3232C1.89359 27.5419 2.15166 27.7155 2.436 27.834C2.72034 27.9524 3.02532 28.0134 3.33334 28.0134C3.64137 28.0134 3.94635 27.9524 4.23069 27.834C4.51503 27.7155 4.7731 27.5419 4.99001 27.3232L15 17.2899L25.01 27.3232C25.2269 27.5419 25.485 27.7155 25.7693 27.834C26.0537 27.9524 26.3587 28.0134 26.6667 28.0134C26.9747 28.0134 27.2797 27.9524 27.564 27.834C27.8484 27.7155 28.1064 27.5419 28.3233 27.3232C28.542 27.1063 28.7156 26.8483 28.8341 26.5639C28.9526 26.2796 29.0135 25.9746 29.0135 25.6666C29.0135 25.3585 28.9526 25.0536 28.8341 24.7692C28.7156 24.4849 28.542 24.2268 28.3233 24.0099L18.29 13.9999Z" fill="white"/>
</svg>
