<svg width="19" height="16" viewBox="0 0 19 16" fill="none" xmlns="http://www.w3.org/2000/svg">
<g clip-path="url(#clip0_55_1955)">
<path d="M18.5497 1.50725C18.5495 1.11745 18.3982 0.74291 18.1276 0.462352C17.857 0.181795 17.4881 0.017064 17.0986 0.00278263V0H1.58696V0.00417405C1.56006 0.00278275 1.53339 0 1.50626 0C1.19455 0.000203246 0.890564 0.097047 0.636176 0.277194C0.381788 0.457341 0.189511 0.711928 0.0858256 1.00589C-0.0178595 1.29986 -0.0278519 1.61874 0.0572249 1.91862C0.142302 2.2185 0.318262 2.48463 0.560872 2.68035L7.54986 9.6691L7.54963 13.9819V14.0176H7.5531C7.55896 14.1506 7.59847 14.28 7.66795 14.3935C7.73742 14.5071 7.83458 14.6011 7.95032 14.6669L7.94823 14.6706L9.77363 15.7245C9.78893 15.7352 9.80586 15.7428 9.82186 15.7523L9.82835 15.7561V15.7558C9.94476 15.8231 10.0783 15.8646 10.2226 15.8646C10.3266 15.8646 10.4296 15.8441 10.5257 15.8043C10.6218 15.7645 10.7092 15.7062 10.7827 15.6326C10.8563 15.5591 10.9146 15.4717 10.9544 15.3756C10.9942 15.2795 11.0147 15.1765 11.0147 15.0725C11.0147 15.0516 11.01 15.0319 11.0086 15.0115H11.0147V9.67559L18.0679 2.62261L18.0609 2.61565C18.215 2.47501 18.338 2.30381 18.4221 2.11296C18.5063 1.92212 18.5498 1.71582 18.5497 1.50725ZM5.15821 3.01449H5.16145L5.16168 3.01797L5.15821 3.01449Z" fill="black"/>
</g>
<defs>
<clipPath id="clip0_55_1955">
<rect width="18.5507" height="16" fill="white"/>
</clipPath>
</defs>
</svg>
