<svg width="28" height="25" viewBox="0 0 28 25" fill="none" xmlns="http://www.w3.org/2000/svg">
<path d="M-0.0832518 7.37456C-0.0834228 6.3779 0.115065 5.3912 0.500611 4.47213C0.886157 3.55307 1.45103 2.72007 2.16221 2.02182C2.87339 1.32357 3.71661 0.774076 4.6426 0.405457C5.56858 0.0368382 6.55875 -0.143513 7.55524 -0.125057C8.7343 -0.131318 9.90122 0.113083 10.9787 0.591949C12.0561 1.07081 13.0195 1.77321 13.8049 2.65258C14.5904 1.77321 15.5537 1.07081 16.6312 0.591949C17.7086 0.113083 18.8755 -0.131318 20.0546 -0.125057C21.0511 -0.143513 22.0413 0.0368382 22.9672 0.405457C23.8932 0.774076 24.7365 1.32357 25.4476 2.02182C26.1588 2.72007 26.7237 3.55307 27.1092 4.47213C27.4948 5.3912 27.6933 6.3779 27.6931 7.37456C27.6931 14.8131 18.8338 20.4294 13.8049 24.8737C8.78712 20.3919 -0.0832518 14.8186 -0.0832518 7.37456Z" fill="#D7D7D7"/>
</svg>
