<svg width="28" height="26" viewBox="0 0 28 26" fill="none" xmlns="http://www.w3.org/2000/svg">
<g clip-path="url(#clip0_40_1103)">
<path d="M13.8819 25.4889C12.9865 24.6949 11.9745 23.8689 10.9042 22.9902H10.8903C7.12141 19.9084 2.84996 16.4213 0.963417 12.2428C0.344286 10.9129 0.015286 9.46646 1.5933e-05 7.99776C-0.00204095 7.00102 0.195072 6.01391 0.579781 5.0944C0.96449 4.17489 1.52904 3.34151 2.24028 2.64321C2.95152 1.9449 3.79512 1.39573 4.72153 1.02796C5.64794 0.660184 6.6385 0.481215 7.63504 0.501559C9.27397 0.504147 10.8776 0.977819 12.2549 1.86614C12.8601 2.25896 13.4077 2.73411 13.8819 3.27793C14.3594 2.73654 14.9064 2.26178 15.5102 1.86614C16.8869 0.977644 18.4902 0.503944 20.1287 0.501559C21.1252 0.481215 22.1158 0.660184 23.0422 1.02796C23.9686 1.39573 24.8122 1.9449 25.5235 2.64321C26.2347 3.34151 26.7992 4.17489 27.184 5.0944C27.5687 6.01391 27.7658 7.00102 27.7637 7.99776C27.7496 9.46759 27.4211 10.9174 26.8003 12.2498C24.9138 16.4282 20.6437 19.9139 16.8748 22.9902L16.8609 23.0013C15.7892 23.8744 14.7786 24.7004 13.8833 25.5L13.8819 25.4889ZM7.63504 3.27793C6.34196 3.26175 5.09476 3.75664 4.16457 4.65501C3.72098 5.09073 3.36951 5.61118 3.13104 6.18542C2.89256 6.75966 2.77196 7.37598 2.77639 7.99776C2.79166 9.06666 3.03459 10.1217 3.48714 11.0906C4.3777 12.8935 5.57931 14.5251 7.03673 15.9104C8.41242 17.2986 9.99495 18.6424 11.3637 19.7723C11.7427 20.0847 12.1286 20.3998 12.5145 20.7149L12.7574 20.9134C13.1281 21.2161 13.5112 21.5298 13.8819 21.838L13.8999 21.8213L13.9082 21.8144H13.9166L13.9291 21.8046H13.9429L13.9679 21.7838L14.0249 21.738L14.0346 21.7297L14.0498 21.7186H14.0582L14.0707 21.7075L14.9924 20.9509L15.234 20.7524C15.624 20.4345 16.01 20.1194 16.3889 19.8071C17.7577 18.6771 19.3416 17.3347 20.7173 15.9396C22.175 14.555 23.3766 12.9238 24.2669 11.1212C24.7278 10.1439 24.9749 9.07777 24.9887 7.99776C24.9914 7.37776 24.8698 6.76351 24.6312 6.19129C24.3925 5.61906 24.0416 5.10046 23.5992 4.66611C22.6708 3.76368 21.4234 3.26472 20.1287 3.27793C19.3476 3.27129 18.574 3.43002 17.8586 3.74368C17.1432 4.05734 16.5023 4.51884 15.978 5.09784L13.8819 7.51328L11.7857 5.09784C11.2614 4.51884 10.6205 4.05734 9.90514 3.74368C9.18977 3.43002 8.41612 3.27129 7.63504 3.27793Z" fill="white"/>
</g>
<defs>
<clipPath id="clip0_40_1103">
<rect width="28" height="25" fill="white" transform="translate(0 0.5)"/>
</clipPath>
</defs>
</svg>
