<svg width="30" height="24" viewBox="0 0 30 24" fill="none" xmlns="http://www.w3.org/2000/svg">
<g clip-path="url(#clip0_67_2163)">
<path d="M27 24H3C2.20435 24 1.44129 23.6839 0.87868 23.1213C0.31607 22.5587 0 21.7957 0 21V2.8695C0.033649 2.09669 0.364513 1.36674 0.923517 0.832051C1.48252 0.297364 2.22645 -0.000730858 3 1.34568e-06H27C27.7956 1.34568e-06 28.5587 0.316072 29.1213 0.878681C29.6839 1.44129 30 2.20435 30 3V21C30 21.7957 29.6839 22.5587 29.1213 23.1213C28.5587 23.6839 27.7956 24 27 24ZM3 5.802V21H27V5.802L15 13.8L3 5.802ZM4.2 3L15 10.2L25.8 3H4.2Z" fill="white"/>
</g>
<defs>
<clipPath id="clip0_67_2163">
<rect width="30" height="24" fill="white"/>
</clipPath>
</defs>
</svg>
