<svg width="8" height="14" viewBox="0 0 8 14" fill="none" xmlns="http://www.w3.org/2000/svg">
<path d="M0.292952 13.364C0.105481 13.1765 0.000165398 12.9222 0.000165375 12.657C0.000165352 12.3918 0.105481 12.1375 0.292952 11.95L5.24295 7.00001L0.292951 2.05001C0.110793 1.86141 0.0099987 1.60881 0.012277 1.34661C0.0145553 1.08442 0.119724 0.833602 0.305132 0.648194C0.49054 0.462786 0.741353 0.357618 1.00355 0.35534C1.26575 0.353061 1.51835 0.453855 1.70695 0.636014L7.36395 6.29301C7.55142 6.48054 7.65674 6.73485 7.65674 7.00001C7.65674 7.26518 7.55142 7.51949 7.36395 7.70701L1.70695 13.364C1.51942 13.5515 1.26512 13.6568 0.999952 13.6568C0.734787 13.6568 0.48048 13.5515 0.292952 13.364Z" fill="white"/>
</svg>
