<svg width="28" height="28" viewBox="0 0 28 28" fill="none" xmlns="http://www.w3.org/2000/svg">
<path d="M1 7C1 18.0453 9.95467 27 21 27H24C24.7957 27 25.5587 26.6839 26.1213 26.1213C26.6839 25.5587 27 24.7957 27 24V22.1707C27 21.4827 26.532 20.8827 25.864 20.716L19.9667 19.2413C19.38 19.0947 18.764 19.3147 18.4027 19.7973L17.1093 21.5213C16.7333 22.0227 16.084 22.244 15.496 22.028C13.3132 21.2255 11.3309 19.9581 9.68638 18.3136C8.04188 16.6691 6.7745 14.6868 5.972 12.504C5.756 11.916 5.97733 11.2667 6.47867 10.8907L8.20267 9.59733C8.68667 9.236 8.90533 8.61867 8.75867 8.03333L7.284 2.136C7.20285 1.81159 7.01563 1.5236 6.75207 1.31778C6.48851 1.11196 6.16374 1.00011 5.82933 1H4C3.20435 1 2.44129 1.31607 1.87868 1.87868C1.31607 2.44129 1 3.20435 1 4V7Z" stroke="white" stroke-width="1.5" stroke-linecap="round" stroke-linejoin="round"/>
</svg>
