<svg width="8" height="14" viewBox="0 0 8 14" fill="none" xmlns="http://www.w3.org/2000/svg">
<path d="M7.70705 0.635987C7.89452 0.823515 7.99983 1.07782 7.99983 1.34299C7.99983 1.60815 7.89452 1.86246 7.70705 2.04999L2.75705 6.99999L7.70705 11.95C7.88921 12.1386 7.99 12.3912 7.98772 12.6534C7.98544 12.9156 7.88027 13.1664 7.69487 13.3518C7.50946 13.5372 7.25865 13.6424 6.99645 13.6447C6.73425 13.6469 6.48165 13.5461 6.29305 13.364L0.636048 7.70699C0.448577 7.51946 0.343262 7.26515 0.343262 6.99999C0.343262 6.73482 0.448577 6.48052 0.636048 6.29299L6.29305 0.635987C6.48058 0.448516 6.73488 0.343201 7.00005 0.343201C7.26521 0.343201 7.51952 0.448516 7.70705 0.635987Z" fill="white"/>
</svg>
