<svg width="26" height="26" viewBox="0 0 26 26" fill="none" xmlns="http://www.w3.org/2000/svg">
<g clip-path="url(#clip0_40_1105)">
<path fill-rule="evenodd" clip-rule="evenodd" d="M9.97806 17.0898C10.6753 17.09 11.3439 17.3671 11.8369 17.8602L13.1515 19.1748L14.4661 17.8602C14.9591 17.3671 15.6277 17.09 16.325 17.0898H21.6149C22.4943 17.0899 23.3484 17.3839 24.0415 17.9251C24.7347 18.4663 25.227 19.2235 25.4404 20.0766L26.2581 23.3447C26.3033 23.5133 26.3146 23.6892 26.2911 23.8621C26.2676 24.0351 26.2099 24.2016 26.1214 24.3521C26.0329 24.5025 25.9153 24.6338 25.7756 24.7383C25.6358 24.8428 25.4766 24.9184 25.3073 24.9607C25.1379 25.0031 24.9619 25.0113 24.7894 24.9848C24.6168 24.9584 24.4513 24.8979 24.3024 24.8068C24.1535 24.7157 24.0243 24.5959 23.9222 24.4544C23.8201 24.3128 23.7472 24.1523 23.7078 23.9823L22.8914 20.7155C22.8204 20.431 22.6564 20.1784 22.4253 19.9978C22.1943 19.8173 21.9095 19.7191 21.6162 19.7191H16.325L15.0104 21.0337C14.5173 21.5266 13.8487 21.8035 13.1515 21.8035C12.4543 21.8035 11.7857 21.5266 11.2927 21.0337L9.97806 19.7191H4.68809C4.39485 19.7191 4.11005 19.8173 3.879 19.9978C3.64794 20.1784 3.48388 20.431 3.41292 20.7155L2.59524 23.9823C2.55581 24.1523 2.48293 24.3128 2.38084 24.4544C2.27874 24.5959 2.14948 24.7157 2.0006 24.8068C1.85171 24.8979 1.68618 24.9584 1.51366 24.9848C1.34114 25.0113 1.16509 25.0031 0.995766 24.9607C0.826445 24.9184 0.667247 24.8428 0.52746 24.7383C0.387674 24.6338 0.270096 24.5025 0.181586 24.3521C0.0930753 24.2016 0.0354046 24.0351 0.0119375 23.8621C-0.0115296 23.6892 -0.000323461 23.5133 0.0449027 23.3447L0.861272 20.0766C1.07466 19.2235 1.56705 18.4663 2.26017 17.9251C2.9533 17.3839 3.80741 17.0899 4.68677 17.0898H9.97806ZM13.1515 -1.14441e-05C14.1822 -1.14441e-05 15.3351 0.249763 16.2803 0.513999C18.4665 1.12266 19.7245 3.16819 19.7245 5.25446V10.5208C19.7245 12.6084 18.4665 14.6526 16.2803 15.2612C15.3351 15.5242 14.1822 15.7752 13.1515 15.7752C12.1209 15.7752 10.968 15.5255 10.0228 15.2612C7.83656 14.6526 6.57849 12.6084 6.57849 10.5208V5.25446C6.57849 3.16819 7.83656 1.12266 10.0228 0.513999C10.968 0.251078 12.1209 -1.14441e-05 13.1515 -1.14441e-05ZM13.1515 2.6292C12.4824 2.6292 11.6042 2.80272 10.7287 3.04724C9.85054 3.29176 9.2077 4.16071 9.2077 5.25446V10.5208C9.2077 11.6145 9.85054 12.4835 10.7287 12.7293C11.6042 12.9725 12.4824 13.146 13.1515 13.146C13.8206 13.146 14.6988 12.9725 15.5743 12.728C16.4525 12.4835 17.0953 11.6145 17.0953 10.5208V5.25446C17.0953 4.16071 16.4525 3.29176 15.5743 3.04593C14.6988 2.80404 13.822 2.6292 13.1515 2.6292Z" fill="white"/>
</g>
<defs>
<clipPath id="clip0_40_1105">
<rect width="26" height="26" fill="white"/>
</clipPath>
</defs>
</svg>
