<svg width="64" height="64" viewBox="0 0 64 64" fill="none" xmlns="http://www.w3.org/2000/svg">
<path d="M32 7C15.434 7 2 24.271 2 30.232C2 36.193 15.434 53.464 32 53.464C36.615 53.464 40.985 52.121 44.892 50.059L55.58 57V41.686C59.597 37.286 62 32.751 62 30.232C62 24.271 48.568 7 32 7ZM32 45.384C23.717 45.384 17 38.6 17 30.233C17 21.864 23.717 15.082 32 15.082C40.285 15.082 47 21.864 47 30.233C47 38.6 40.285 45.384 32 45.384Z" fill="white"/>
<path d="M32 21.142C31.025 21.142 30.089 21.303 29.21 21.592C29.7697 22.064 30.2198 22.6524 30.5289 23.3161C30.838 23.9798 30.9988 24.7029 31 25.435C31 28.223 28.762 30.485 26 30.485C24.9297 30.4819 23.8896 30.1301 23.037 29.483C23.0151 29.7321 23.0027 29.982 23 30.232C23 35.252 27.029 39.323 32 39.323C36.971 39.323 41 35.252 41 30.232C41 25.211 36.971 21.142 32 21.142Z" fill="white"/>
</svg>
